<svg xmlns="http://www.w3.org/2000/svg" xmlns:xlink="http://www.w3.org/1999/xlink" width="816" zoomAndPan="magnify" viewBox="0 0 612 791.999994" height="1056" preserveAspectRatio="xMidYMid meet" version="1.0"><defs><g/></defs><path stroke-linecap="butt" transform="matrix(0.617275, 0, 0, 0.617275, 61.199999, 146.019416)" fill="none" stroke-linejoin="miter" d="M 189.826342 112.996878 C 189.117581 112.996878 188.541713 112.762734 188.086081 112.288117 C 187.655762 111.794516 187.446931 111.111068 187.446931 110.225117 C 187.446931 109.604952 187.586152 108.896191 187.864593 108.098836 L 219.803118 18.07991 C 220.233437 16.940831 220.714382 16.156132 221.252281 15.725813 C 221.790179 15.276509 222.631833 15.048693 223.770912 15.048693 L 249.779895 15.048693 C 250.830379 15.048693 251.779612 15.384089 252.614937 16.048552 C 253.456591 16.69403 254.089413 17.542012 254.519732 18.592496 L 286.198799 108.522826 C 286.37599 109.231587 286.458256 109.756829 286.458256 110.098553 C 286.458256 110.895909 286.287394 111.579356 285.945671 112.161553 C 285.597619 112.718436 285.072376 112.996878 284.363616 112.996878 L 258.481197 112.996878 C 256.975081 112.996878 256.013191 112.250148 255.582872 110.744031 L 250.425373 95.562632 C 250.165916 94.961452 249.919116 94.550117 249.684972 94.334958 C 249.469812 94.100814 249.058478 93.980578 248.457297 93.980578 L 220.448597 93.980578 C 219.398112 93.980578 218.739977 94.46785 218.48052 95.436068 L 213.069893 111.03513 C 212.531994 112.345071 211.475181 112.996878 209.912111 112.996878 Z M 241.850636 71.553367 C 242.818853 71.553367 243.299798 71.110392 243.299798 70.230769 C 243.299798 70.059907 243.217531 69.616932 243.040341 68.908171 L 235.111082 46.348068 C 234.94022 45.892436 234.674435 45.670948 234.307398 45.670948 C 233.965674 45.670948 233.706217 45.892436 233.535355 46.348068 L 225.479531 68.781607 C 225.302341 69.123331 225.220074 69.559978 225.220074 70.097876 C 225.220074 71.066094 225.745317 71.553367 226.795801 71.553367 Z M 296.501141 18.07991 C 296.501141 17.111693 296.716301 16.371291 297.146619 15.852377 C 297.595923 15.314478 298.222417 15.048693 299.013444 15.048693 L 324.092179 15.048693 C 325.680562 15.048693 326.477918 15.972613 326.477918 17.820453 L 326.477918 89.500198 C 326.477918 90.215287 326.585497 90.696231 326.800657 90.955688 C 327.015816 91.208817 327.433479 91.34171 328.053644 91.34171 L 367.801192 91.34171 C 369.819894 91.34171 370.826081 92.177035 370.826081 93.854013 L 370.826081 110.098553 C 370.826081 110.978176 370.534983 111.686936 369.959115 112.224835 C 369.395904 112.743749 368.59222 112.996878 367.541735 112.996878 L 300.082913 112.996878 C 298.747659 112.996878 297.811083 112.743749 297.273184 112.224835 C 296.760598 111.686936 296.501141 110.851611 296.501141 109.712532 Z M 380.198175 112.996878 C 379.489414 112.996878 378.907218 112.762734 378.457914 112.288117 C 378.027595 111.794516 377.812436 111.111068 377.812436 110.225117 C 377.812436 109.604952 377.951657 108.896191 378.230098 108.098836 L 410.168623 18.07991 C 410.598942 16.940831 411.086215 16.156132 411.624114 15.725813 C 412.155684 15.276509 412.997337 15.048693 414.136417 15.048693 L 440.1454 15.048693 C 441.195884 15.048693 442.145117 15.384089 442.980442 16.048552 C 443.822096 16.69403 444.454918 17.542012 444.885237 18.592496 L 476.570633 108.522826 C 476.741494 109.231587 476.823761 109.756829 476.823761 110.098553 C 476.823761 110.895909 476.652899 111.579356 476.311176 112.161553 C 475.963123 112.718436 475.437881 112.996878 474.729121 112.996878 L 448.846702 112.996878 C 447.346914 112.996878 446.378696 112.250148 445.948377 110.744031 L 440.790878 95.562632 C 440.531421 94.961452 440.284621 94.550117 440.050477 94.334958 C 439.835317 94.100814 439.423983 93.980578 438.822802 93.980578 L 410.814102 93.980578 C 409.763617 93.980578 409.105482 94.46785 408.852354 95.436068 L 403.435397 111.03513 C 402.897499 112.345071 401.847014 112.996878 400.277616 112.996878 Z M 432.216141 71.553367 C 433.184358 71.553367 433.665303 71.110392 433.665303 70.230769 C 433.665303 70.059907 433.583036 69.616932 433.412174 68.908171 L 425.482915 46.348068 C 425.312053 45.892436 425.03994 45.670948 424.672903 45.670948 C 424.331179 45.670948 424.071722 45.892436 423.90086 46.348068 L 415.845036 68.781607 C 415.674174 69.123331 415.585579 69.559978 415.585579 70.097876 C 415.585579 71.066094 416.110822 71.553367 417.167634 71.553367 Z M 490.283885 112.996878 C 489.2334 112.996878 488.391747 112.680467 487.771581 112.034988 C 487.170401 111.364197 486.866646 110.452933 486.866646 109.294869 L 486.866646 18.07991 C 486.866646 17.023098 487.081805 16.263711 487.512124 15.789095 C 487.967756 15.295494 488.676517 15.048693 489.638406 15.048693 L 526.607866 15.048693 C 527.746945 15.048693 528.556957 15.20057 529.025246 15.497997 C 529.518847 15.801751 529.949166 16.44723 530.316202 17.434432 L 544.048439 59.396857 C 544.307896 60.105617 544.605323 60.459998 544.947046 60.459998 C 545.231816 60.459998 545.497601 60.105617 545.757058 59.396857 L 558.033805 18.883594 C 558.723581 16.326994 559.906958 15.048693 561.583936 15.048693 L 599.743101 15.048693 C 601.331484 15.048693 602.12884 15.972613 602.12884 17.820453 L 602.12884 109.161977 C 602.12884 110.579498 601.793444 111.579356 601.128981 112.161553 C 600.464518 112.718436 599.38872 112.996878 597.907917 112.996878 L 575.569301 112.996878 C 574.25936 112.996878 573.354425 112.743749 572.860823 112.224835 C 572.392535 111.686936 572.152063 110.851611 572.152063 109.712532 L 572.152063 50.404457 C 572.152063 49.721009 571.981201 49.372957 571.639477 49.372957 C 571.183845 49.372957 570.829465 49.771635 570.576336 50.56899 L 551.560036 110.617467 C 550.933542 112.20585 549.883058 112.996878 548.395926 112.996878 L 534.537125 112.996878 C 532.948742 112.996878 531.885601 112.20585 531.347702 110.617467 L 512.363043 51.60049 C 512.084601 50.720868 511.774519 50.277892 511.426467 50.277892 C 510.977163 50.277892 510.749347 50.758837 510.749347 51.727055 L 510.749347 110.098553 C 510.749347 111.237633 510.578485 112.009675 510.236761 112.42101 C 509.895037 112.807031 509.097682 112.996878 507.851023 112.996878 Z M 490.283885 112.996878 " stroke="#ffdf2b" stroke-width="4.9509" stroke-opacity="1" stroke-miterlimit="4"/><g fill="#ffdf2b" fill-opacity="1"><g transform="translate(87.875842, 136.624284)"><g><path d="M 38.984375 -42.84375 C 37.722656 -44.207031 36.367188 -45.257812 34.921875 -46 C 33.472656 -46.738281 31.378906 -47.109375 28.640625 -47.109375 C 25.910156 -47.109375 23.882812 -46.710938 22.5625 -45.921875 C 21.25 -45.128906 20.59375 -44.179688 20.59375 -43.078125 C 20.59375 -41.191406 22.273438 -39.851562 25.640625 -39.0625 L 38.75 -35.671875 C 43.53125 -34.453125 47.128906 -32.332031 49.546875 -29.3125 C 51.972656 -26.289062 53.1875 -22.675781 53.1875 -18.46875 C 53.1875 -14.570312 52.160156 -11.175781 50.109375 -8.28125 C 48.054688 -5.394531 45.125 -3.160156 41.3125 -1.578125 C 37.5 0.00390625 33.039062 0.796875 27.9375 0.796875 C 22.144531 0.796875 16.867188 -0.160156 12.109375 -2.078125 C 7.347656 -4.003906 4.046875 -6.519531 2.203125 -9.625 C 1.941406 -10.15625 1.8125 -10.550781 1.8125 -10.8125 C 1.8125 -11.332031 2.101562 -11.804688 2.6875 -12.234375 L 10.8125 -17.828125 C 11.382812 -18.203125 11.910156 -18.390625 12.390625 -18.390625 C 12.960938 -18.390625 13.4375 -18.148438 13.8125 -17.671875 C 15.59375 -15.359375 17.40625 -13.726562 19.25 -12.78125 C 21.09375 -11.832031 23.539062 -11.359375 26.59375 -11.359375 C 29.539062 -11.359375 31.867188 -11.765625 33.578125 -12.578125 C 35.285156 -13.398438 36.140625 -14.519531 36.140625 -15.9375 C 36.140625 -16.9375 35.71875 -17.800781 34.875 -18.53125 C 34.03125 -19.269531 32.796875 -19.828125 31.171875 -20.203125 L 19.171875 -23.125 C 14.441406 -24.28125 10.679688 -26.445312 7.890625 -29.625 C 5.097656 -32.8125 3.703125 -36.484375 3.703125 -40.640625 C 3.703125 -44.054688 4.703125 -47.195312 6.703125 -50.0625 C 8.703125 -52.925781 11.539062 -55.1875 15.21875 -56.84375 C 18.90625 -58.507812 23.171875 -59.34375 28.015625 -59.34375 C 32.742188 -59.34375 37.132812 -58.566406 41.1875 -57.015625 C 45.238281 -55.460938 48.160156 -53.394531 49.953125 -50.8125 C 50.316406 -50.34375 50.5 -49.894531 50.5 -49.46875 C 50.5 -49.101562 50.316406 -48.765625 49.953125 -48.453125 L 41.34375 -42.21875 C 41.082031 -42.007812 40.796875 -41.90625 40.484375 -41.90625 C 40.109375 -41.90625 39.609375 -42.21875 38.984375 -42.84375 Z M 38.984375 -42.84375 "/></g></g></g><g fill="#ffdf2b" fill-opacity="1"><g transform="translate(143.183739, 136.624284)"><g><path d="M 23.28125 -23.4375 C 22.90625 -23.4375 22.597656 -23.316406 22.359375 -23.078125 C 22.128906 -22.835938 22.015625 -22.5625 22.015625 -22.25 L 22.015625 -2.28125 C 22.015625 -1.445312 21.800781 -0.859375 21.375 -0.515625 C 20.957031 -0.171875 20.300781 0 19.40625 0 L 6.234375 0 C 5.441406 0 4.890625 -0.15625 4.578125 -0.46875 C 4.265625 -0.789062 4.109375 -1.289062 4.109375 -1.96875 L 4.109375 -56.734375 C 4.109375 -57.316406 4.238281 -57.765625 4.5 -58.078125 C 4.757812 -58.390625 5.128906 -58.546875 5.609375 -58.546875 L 20.59375 -58.546875 C 21.007812 -58.546875 21.347656 -58.398438 21.609375 -58.109375 C 21.878906 -57.828125 22.015625 -57.421875 22.015625 -56.890625 L 22.015625 -38.578125 C 22.015625 -37.523438 22.488281 -37 23.4375 -37 L 36.6875 -37 C 37.632812 -37 38.109375 -37.523438 38.109375 -38.578125 L 38.109375 -56.890625 C 38.109375 -57.421875 38.238281 -57.828125 38.5 -58.109375 C 38.769531 -58.398438 39.113281 -58.546875 39.53125 -58.546875 L 54.53125 -58.546875 C 55 -58.546875 55.363281 -58.390625 55.625 -58.078125 C 55.894531 -57.765625 56.03125 -57.316406 56.03125 -56.734375 L 56.03125 -1.96875 C 56.03125 -1.289062 55.867188 -0.789062 55.546875 -0.46875 C 55.234375 -0.15625 54.679688 0 53.890625 0 L 40.71875 0 C 39.820312 0 39.160156 -0.171875 38.734375 -0.515625 C 38.316406 -0.859375 38.109375 -1.445312 38.109375 -2.28125 L 38.109375 -22.25 C 38.109375 -22.5625 37.988281 -22.835938 37.75 -23.078125 C 37.519531 -23.316406 37.21875 -23.4375 36.84375 -23.4375 Z M 23.28125 -23.4375 "/></g></g></g><g fill="#ffdf2b" fill-opacity="1"><g transform="translate(203.304441, 136.624284)"><g><path d="M 3.390625 0 C 2.972656 0 2.628906 -0.144531 2.359375 -0.4375 C 2.097656 -0.726562 1.96875 -1.132812 1.96875 -1.65625 C 1.96875 -2.019531 2.046875 -2.441406 2.203125 -2.921875 L 21.3125 -56.734375 C 21.570312 -57.421875 21.859375 -57.894531 22.171875 -58.15625 C 22.484375 -58.414062 22.984375 -58.546875 23.671875 -58.546875 L 39.21875 -58.546875 C 39.84375 -58.546875 40.40625 -58.347656 40.90625 -57.953125 C 41.40625 -57.554688 41.789062 -57.046875 42.0625 -56.421875 L 61 -2.6875 C 61.101562 -2.257812 61.15625 -1.941406 61.15625 -1.734375 C 61.15625 -1.265625 61.046875 -0.859375 60.828125 -0.515625 C 60.617188 -0.171875 60.304688 0 59.890625 0 L 44.421875 0 C 43.523438 0 42.945312 -0.445312 42.6875 -1.34375 L 39.609375 -10.421875 C 39.453125 -10.785156 39.304688 -11.03125 39.171875 -11.15625 C 39.046875 -11.289062 38.796875 -11.359375 38.421875 -11.359375 L 21.703125 -11.359375 C 21.066406 -11.359375 20.671875 -11.070312 20.515625 -10.5 L 17.28125 -1.1875 C 16.96875 -0.394531 16.335938 0 15.390625 0 Z M 34.484375 -24.78125 C 35.054688 -24.78125 35.34375 -25.039062 35.34375 -25.5625 C 35.34375 -25.664062 35.289062 -25.929688 35.1875 -26.359375 L 30.453125 -39.84375 C 30.347656 -40.113281 30.191406 -40.25 29.984375 -40.25 C 29.773438 -40.25 29.617188 -40.113281 29.515625 -39.84375 L 24.703125 -26.4375 C 24.597656 -26.226562 24.546875 -25.960938 24.546875 -25.640625 C 24.546875 -25.066406 24.859375 -24.78125 25.484375 -24.78125 Z M 34.484375 -24.78125 "/></g></g></g><g fill="#ffdf2b" fill-opacity="1"><g transform="translate(266.344383, 136.624284)"><g><path d="M 20.59375 -58.546875 C 21.539062 -58.546875 22.015625 -57.992188 22.015625 -56.890625 L 22.015625 -2.28125 C 22.015625 -1.445312 21.800781 -0.859375 21.375 -0.515625 C 20.957031 -0.171875 20.300781 0 19.40625 0 L 6.234375 0 C 5.441406 0 4.890625 -0.15625 4.578125 -0.46875 C 4.265625 -0.789062 4.109375 -1.289062 4.109375 -1.96875 L 4.109375 -56.734375 C 4.109375 -57.316406 4.238281 -57.765625 4.5 -58.078125 C 4.757812 -58.390625 5.128906 -58.546875 5.609375 -58.546875 Z M 20.59375 -58.546875 "/></g></g></g><g fill="#ffdf2b" fill-opacity="1"><g transform="translate(292.459811, 136.624284)"><g><path d="M 2.203125 -56.734375 C 2.203125 -57.253906 2.375 -57.6875 2.71875 -58.03125 C 3.0625 -58.375 3.550781 -58.546875 4.1875 -58.546875 L 51.375 -58.546875 C 52 -58.546875 52.484375 -58.375 52.828125 -58.03125 C 53.171875 -57.6875 53.34375 -57.253906 53.34375 -56.734375 L 53.34375 -47.34375 C 53.34375 -46.34375 52.765625 -45.84375 51.609375 -45.84375 L 37.640625 -45.84375 C 37.003906 -45.84375 36.6875 -45.582031 36.6875 -45.0625 L 36.6875 -1.734375 C 36.6875 -1.160156 36.554688 -0.726562 36.296875 -0.4375 C 36.035156 -0.144531 35.664062 0 35.1875 0 L 20.203125 0 C 19.253906 0 18.78125 -0.523438 18.78125 -1.578125 L 18.78125 -44.734375 C 18.78125 -45.472656 18.488281 -45.84375 17.90625 -45.84375 L 4.03125 -45.84375 C 2.8125 -45.84375 2.203125 -46.34375 2.203125 -47.34375 Z M 2.203125 -56.734375 "/></g></g></g><g fill="#ffdf2b" fill-opacity="1"><g transform="translate(348.004399, 136.624284)"><g><path d="M 23.28125 -23.4375 C 22.90625 -23.4375 22.597656 -23.316406 22.359375 -23.078125 C 22.128906 -22.835938 22.015625 -22.5625 22.015625 -22.25 L 22.015625 -2.28125 C 22.015625 -1.445312 21.800781 -0.859375 21.375 -0.515625 C 20.957031 -0.171875 20.300781 0 19.40625 0 L 6.234375 0 C 5.441406 0 4.890625 -0.15625 4.578125 -0.46875 C 4.265625 -0.789062 4.109375 -1.289062 4.109375 -1.96875 L 4.109375 -56.734375 C 4.109375 -57.316406 4.238281 -57.765625 4.5 -58.078125 C 4.757812 -58.390625 5.128906 -58.546875 5.609375 -58.546875 L 20.59375 -58.546875 C 21.007812 -58.546875 21.347656 -58.398438 21.609375 -58.109375 C 21.878906 -57.828125 22.015625 -57.421875 22.015625 -56.890625 L 22.015625 -38.578125 C 22.015625 -37.523438 22.488281 -37 23.4375 -37 L 36.6875 -37 C 37.632812 -37 38.109375 -37.523438 38.109375 -38.578125 L 38.109375 -56.890625 C 38.109375 -57.421875 38.238281 -57.828125 38.5 -58.109375 C 38.769531 -58.398438 39.113281 -58.546875 39.53125 -58.546875 L 54.53125 -58.546875 C 55 -58.546875 55.363281 -58.390625 55.625 -58.078125 C 55.894531 -57.765625 56.03125 -57.316406 56.03125 -56.734375 L 56.03125 -1.96875 C 56.03125 -1.289062 55.867188 -0.789062 55.546875 -0.46875 C 55.234375 -0.15625 54.679688 0 53.890625 0 L 40.71875 0 C 39.820312 0 39.160156 -0.171875 38.734375 -0.515625 C 38.316406 -0.859375 38.109375 -1.445312 38.109375 -2.28125 L 38.109375 -22.25 C 38.109375 -22.5625 37.988281 -22.835938 37.75 -23.078125 C 37.519531 -23.316406 37.21875 -23.4375 36.84375 -23.4375 Z M 23.28125 -23.4375 "/></g></g></g><g fill="#ffdf2b" fill-opacity="1"><g transform="translate(408.125111, 136.624284)"><g><path d="M 4.109375 -56.734375 C 4.109375 -57.941406 4.609375 -58.546875 5.609375 -58.546875 L 48.21875 -58.546875 C 49.15625 -58.546875 49.625 -57.992188 49.625 -56.890625 L 49.546875 -47.734375 C 49.546875 -46.316406 48.863281 -45.609375 47.5 -45.609375 L 23.828125 -45.609375 C 22.617188 -45.609375 22.015625 -45.109375 22.015625 -44.109375 L 22.015625 -37.40625 C 22.015625 -36.875 22.144531 -36.460938 22.40625 -36.171875 C 22.664062 -35.890625 23.007812 -35.75 23.4375 -35.75 L 37.640625 -35.75 C 38.742188 -35.75 39.296875 -35.222656 39.296875 -34.171875 L 39.296875 -24.375 C 39.296875 -23.488281 38.820312 -23.046875 37.875 -23.046875 L 23.28125 -23.046875 C 22.90625 -23.046875 22.597656 -22.9375 22.359375 -22.71875 C 22.128906 -22.507812 22.015625 -22.25 22.015625 -21.9375 L 22.015625 -14.046875 C 22.015625 -13.628906 22.078125 -13.335938 22.203125 -13.171875 C 22.335938 -13.015625 22.59375 -12.9375 22.96875 -12.9375 L 48.609375 -12.9375 C 49.765625 -12.9375 50.34375 -12.4375 50.34375 -11.4375 L 50.34375 -1.734375 C 50.34375 -1.210938 50.179688 -0.789062 49.859375 -0.46875 C 49.546875 -0.15625 49.078125 0 48.453125 0 L 6.234375 0 C 5.441406 0 4.890625 -0.15625 4.578125 -0.46875 C 4.265625 -0.789062 4.109375 -1.289062 4.109375 -1.96875 Z M 4.109375 -56.734375 "/></g></g></g><g fill="#ffdf2b" fill-opacity="1"><g transform="translate(461.066036, 136.624284)"><g><path d="M 3.390625 0 C 2.972656 0 2.628906 -0.144531 2.359375 -0.4375 C 2.097656 -0.726562 1.96875 -1.132812 1.96875 -1.65625 C 1.96875 -2.019531 2.046875 -2.441406 2.203125 -2.921875 L 21.3125 -56.734375 C 21.570312 -57.421875 21.859375 -57.894531 22.171875 -58.15625 C 22.484375 -58.414062 22.984375 -58.546875 23.671875 -58.546875 L 39.21875 -58.546875 C 39.84375 -58.546875 40.40625 -58.347656 40.90625 -57.953125 C 41.40625 -57.554688 41.789062 -57.046875 42.0625 -56.421875 L 61 -2.6875 C 61.101562 -2.257812 61.15625 -1.941406 61.15625 -1.734375 C 61.15625 -1.265625 61.046875 -0.859375 60.828125 -0.515625 C 60.617188 -0.171875 60.304688 0 59.890625 0 L 44.421875 0 C 43.523438 0 42.945312 -0.445312 42.6875 -1.34375 L 39.609375 -10.421875 C 39.453125 -10.785156 39.304688 -11.03125 39.171875 -11.15625 C 39.046875 -11.289062 38.796875 -11.359375 38.421875 -11.359375 L 21.703125 -11.359375 C 21.066406 -11.359375 20.671875 -11.070312 20.515625 -10.5 L 17.28125 -1.1875 C 16.96875 -0.394531 16.335938 0 15.390625 0 Z M 34.484375 -24.78125 C 35.054688 -24.78125 35.34375 -25.039062 35.34375 -25.5625 C 35.34375 -25.664062 35.289062 -25.929688 35.1875 -26.359375 L 30.453125 -39.84375 C 30.347656 -40.113281 30.191406 -40.25 29.984375 -40.25 C 29.773438 -40.25 29.617188 -40.113281 29.515625 -39.84375 L 24.703125 -26.4375 C 24.597656 -26.226562 24.546875 -25.960938 24.546875 -25.640625 C 24.546875 -25.066406 24.859375 -24.78125 25.484375 -24.78125 Z M 34.484375 -24.78125 "/></g></g></g></svg>